/* XPM */
static char *d4f84ce3c12d4554f7618c3ce4082ce40rbE4sqlK4k04mOO[] = {
/* columns rows colors chars-per-pixel */
"64 64 4 1 ",
"  c None",
". c #2A2A3A",
"X c #DC4A7B",
"o c #FDF7ED",
/* pixels */
"                                                                ",
"                                                                ",
"                                                                ",
"                                                                ",
"                                                                ",
"                                                                ",
"                                                                ",
"                                                                ",
"                oooooooooooo            oooooooooooo            ",
"                oooooooooooo            oooooooooooo            ",
"                oooooooooooo            oooooooooooo            ",
"                oooooooooooo            oooooooooooo            ",
"            oooo............oooo    oooo............oooo        ",
"            oooo............oooo    oooo............oooo        ",
"            oooo............oooo    oooo............oooo        ",
"            oooo............oooo    oooo............oooo        ",
"        oooo....XXXXXXXXXXXX....oooo....XXXXXXXXXXXX....oooo    ",
"        oooo....XXXXXXXXXXXX....oooo....XXXXXXXXXXXX....oooo    ",
"        oooo....XXXXXXXXXXXX....oooo....XXXXXXXXXXXX....oooo    ",
"        oooo....XXXXXXXXXXXX....oooo....XXXXXXXXXXXX....oooo    ",
"        oooo....XXXXXXXXXXXXXXXX....XXXXXXXXXXXXXXXX....oooo    ",
"        oooo....XXXXXXXXXXXXXXXX....XXXXXXXXXXXXXXXX....oooo    ",
"        oooo....XXXXXXXXXXXXXXXX....XXXXXXXXXXXXXXXX....oooo    ",
"        oooo....XXXXXXXXXXXXXXXX....XXXXXXXXXXXXXXXX....oooo    ",
"        oooo....XXXXXXXXXXXXXXXXXXXXXXXXXXXXXXXXXXXX....oooo    ",
"        oooo....XXXXXXXXXXXXXXXXXXXXXXXXXXXXXXXXXXXX....oooo    ",
"        oooo....XXXXXXXXXXXXXXXXXXXXXXXXXXXXXXXXXXXX....oooo    ",
"        oooo....XXXXXXXXXXXXXXXXXXXXXXXXXXXXXXXXXXXX....oooo    ",
"        oooo....XXXXXXXXXXXXXXXXXXXXXXXXXXXXXXXXXXXX....oooo    ",
"        oooo....XXXXXXXXXXXXXXXXXXXXXXXXXXXXXXXXXXXX....oooo    ",
"        oooo....XXXXXXXXXXXXXXXXXXXXXXXXXXXXXXXXXXXX....oooo    ",
"        oooo....XXXXXXXXXXXXXXXXXXXXXXXXXXXXXXXXXXXX....oooo    ",
"            oooo....XXXXXXXXXXXXXXXXXXXXXXXXXXXX....oooo        ",
"            oooo....XXXXXXXXXXXXXXXXXXXXXXXXXXXX....oooo        ",
"            oooo....XXXXXXXXXXXXXXXXXXXXXXXXXXXX....oooo        ",
"            oooo....XXXXXXXXXXXXXXXXXXXXXXXXXXXX....oooo        ",
"                oooo....XXXXXXXXXXXXXXXXXXXX....oooo            ",
"                oooo....XXXXXXXXXXXXXXXXXXXX....oooo            ",
"                oooo....XXXXXXXXXXXXXXXXXXXX....oooo            ",
"                oooo....XXXXXXXXXXXXXXXXXXXX....oooo            ",
"                    oooo....XXXXXXXXXXXX....oooo                ",
"                    oooo....XXXXXXXXXXXX....oooo                ",
"                    oooo....XXXXXXXXXXXX....oooo                ",
"                    oooo....XXXXXXXXXXXX....oooo                ",
"                        oooo....XXXX....oooo                    ",
"                        oooo....XXXX....oooo                    ",
"                        oooo....XXXX....oooo                    ",
"                        oooo....XXXX....oooo                    ",
"                            oooo....oooo                        ",
"                            oooo....oooo                        ",
"                            oooo....oooo                        ",
"                            oooo....oooo                        ",
"                                oooo                            ",
"                                oooo                            ",
"                                oooo                            ",
"                                oooo                            ",
"                                                                ",
"                                                                ",
"                                                                ",
"                                                                ",
"                                                                ",
"                                                                ",
"                                                                ",
"                                                                "
};
