/* XPM */
static char *_ebb53bc7c41438db64a6fadd83e1f8bGpTDNMaSUUh3NRMr[] = {
/* columns rows colors chars-per-pixel */
"16 16 3 1 ",
"  c None",
". c #483B3A",
"X c #AA8D7A",
/* pixels */
".XXXXXXXXXXXXXXX",
".XXXXXXXXXXXXXXX",
".XXXXXXXXXXXXXXX",
" XXXXXXXXXXXXXXX",
".XXXXXXXXXXXXXXX",
".XXXXXXXXXXXXXXX",
".XXXXXXXXXXXXXXX",
".XXXXXXXXXXXXXXX",
".XXXXXXXXXXXXXXX",
" XXXXXXXXXXXXXXX",
".XXXXXXXXXXXXXXX",
" XXXXXXXXXXXXXXX",
".XXXXXXXXXXXXXXX",
".XXXXXXXXXXXXXXX",
".XXXXXXXXXXXXXXX",
".... . ..... ..."
};
