/* XPM */
static char *_672cc1daee64e11ad48f766efb25c52x1wGL7H0kubXiEYx[] = {
/* columns rows colors chars-per-pixel */
"64 64 7 1 ",
"  c None",
". c #222222",
"X c #62232F",
"o c #8F4029",
"O c #C56025",
"+ c #EE8E2E",
"@ c #FACB3E",
/* pixels */
"        ........                                ........        ",
"        ........                                ........        ",
"        ........                                ........        ",
"        ........                                ........        ",
"........++++XXXX................................XXXX++++........",
"........++++XXXX................................XXXX++++........",
"........++++XXXX................................XXXX++++........",
"........++++XXXX................................XXXX++++........",
"....++++@@@@oooo++++++++++++++++++++++++++++++++oooo@@@@++++....",
"....++++@@@@oooo++++++++++++++++++++++++++++++++oooo@@@@++++....",
"....++++@@@@oooo++++++++++++++++++++++++++++++++oooo@@@@++++....",
"....++++@@@@oooo++++++++++++++++++++++++++++++++oooo@@@@++++....",
"....OOOO++++ooooOOOOOOOOooooXXXXXXXXooooOOOOOOOOoooo++++OOOO....",
"....OOOO++++ooooOOOOOOOOooooXXXXXXXXooooOOOOOOOOoooo++++OOOO....",
"....OOOO++++ooooOOOOOOOOooooXXXXXXXXooooOOOOOOOOoooo++++OOOO....",
"....OOOO++++ooooOOOOOOOOooooXXXXXXXXooooOOOOOOOOoooo++++OOOO....",
"....@@@@@@@@XXXX@@@@@@@@XXXX@@@@@@@@XXXX@@@@@@@@XXXX@@@@@@@@....",
"....@@@@@@@@XXXX@@@@@@@@XXXX@@@@@@@@XXXX@@@@@@@@XXXX@@@@@@@@....",
"....@@@@@@@@XXXX@@@@@@@@XXXX@@@@@@@@XXXX@@@@@@@@XXXX@@@@@@@@....",
"....@@@@@@@@XXXX@@@@@@@@XXXX@@@@@@@@XXXX@@@@@@@@XXXX@@@@@@@@....",
"........++++oooo........XXXX++++@@@@XXXX........oooo++++........",
"........++++oooo........XXXX++++@@@@XXXX........oooo++++........",
"........++++oooo........XXXX++++@@@@XXXX........oooo++++........",
"........++++oooo........XXXX++++@@@@XXXX........oooo++++........",
"....OOOO....................XXXXXXXX....................OOOO....",
"....OOOO....................XXXXXXXX....................OOOO....",
"....OOOO....................XXXXXXXX....................OOOO....",
"....OOOO....................XXXXXXXX....................OOOO....",
"....OOOO................................................OOOO....",
"....OOOO................................................OOOO....",
"....OOOO................................................OOOO....",
"....OOOO................................................OOOO....",
"....OOOO................................................OOOO....",
"....OOOO................................................OOOO....",
"....OOOO................................................OOOO....",
"....OOOO................................................OOOO....",
"....OOOO................................................OOOO....",
"....OOOO................................................OOOO....",
"....OOOO................................................OOOO....",
"....OOOO................................................OOOO....",
"....OOOOOOOOOOOOOOOOOOOOOOOOOOOOOOOOOOOOOOOOOOOOOOOOOOOOOOOO....",
"....OOOOOOOOOOOOOOOOOOOOOOOOOOOOOOOOOOOOOOOOOOOOOOOOOOOOOOOO....",
"....OOOOOOOOOOOOOOOOOOOOOOOOOOOOOOOOOOOOOOOOOOOOOOOOOOOOOOOO....",
"....OOOOOOOOOOOOOOOOOOOOOOOOOOOOOOOOOOOOOOOOOOOOOOOOOOOOOOOO....",
"....XXXXXXXXXXXXXXXXXXXXXXXXXXXXXXXXXXXXXXXXXXXXXXXXXXXXXXXX....",
"....XXXXXXXXXXXXXXXXXXXXXXXXXXXXXXXXXXXXXXXXXXXXXXXXXXXXXXXX....",
"....XXXXXXXXXXXXXXXXXXXXXXXXXXXXXXXXXXXXXXXXXXXXXXXXXXXXXXXX....",
"....XXXXXXXXXXXXXXXXXXXXXXXXXXXXXXXXXXXXXXXXXXXXXXXXXXXXXXXX....",
"....oooooooooooooooooooooooooooooooooooooooooooooooooooooooo....",
"....oooooooooooooooooooooooooooooooooooooooooooooooooooooooo....",
"....oooooooooooooooooooooooooooooooooooooooooooooooooooooooo....",
"....oooooooooooooooooooooooooooooooooooooooooooooooooooooooo....",
"....XXXXooooooooooooooooooooooooooooooooooooooooooooooooXXXX....",
"....XXXXooooooooooooooooooooooooooooooooooooooooooooooooXXXX....",
"....XXXXooooooooooooooooooooooooooooooooooooooooooooooooXXXX....",
"....XXXXooooooooooooooooooooooooooooooooooooooooooooooooXXXX....",
"....XXXXXXXXXXXXXXXXXXXXXXXXXXXXXXXXXXXXXXXXXXXXXXXXXXXXXXXX....",
"....XXXXXXXXXXXXXXXXXXXXXXXXXXXXXXXXXXXXXXXXXXXXXXXXXXXXXXXX....",
"....XXXXXXXXXXXXXXXXXXXXXXXXXXXXXXXXXXXXXXXXXXXXXXXXXXXXXXXX....",
"....XXXXXXXXXXXXXXXXXXXXXXXXXXXXXXXXXXXXXXXXXXXXXXXXXXXXXXXX....",
"................................................................",
"................................................................",
"................................................................",
"................................................................"
};
