/* XPM */
static char *_95ea96d2ecd4f62852c827d645d8975ybxVdmPlDD8ozsaZ[] = {
/* columns rows colors chars-per-pixel */
"64 64 10 1 ",
"  c None",
". c #222222",
"X c #EE8E2E",
"o c #FACB3E",
"O c #5698CC",
"+ c #72D6CE",
"@ c #E2B694",
"# c #FCCBA3",
"$ c #CAE6F5",
"% c #FDF7ED",
/* pixels */
"                                                                ",
"                                                                ",
"                                                                ",
"                                                                ",
"                                                                ",
"                                                                ",
"                                                                ",
"                                                                ",
"                                            ................    ",
"                                            ................    ",
"                                            ................    ",
"                                            ................    ",
"                    ....................    ....oooooooo....    ",
"                    ....................    ....oooooooo....    ",
"                    ....................    ....oooooooo....    ",
"                    ....................    ....oooooooo....    ",
"            ........%%%%%%%%........................oooo....    ",
"            ........%%%%%%%%........................oooo....    ",
"            ........%%%%%%%%........................oooo....    ",
"            ........%%%%%%%%........................oooo....    ",
"        ....%%%%%%%%%%%%$$$$....XXXXXXXXoooooooooooooooo....    ",
"        ....%%%%%%%%%%%%$$$$....XXXXXXXXoooooooooooooooo....    ",
"        ....%%%%%%%%%%%%$$$$....XXXXXXXXoooooooooooooooo....    ",
"        ....%%%%%%%%%%%%$$$$....XXXXXXXXoooooooooooooooo....    ",
"        ....%%%%%%%%$$$$$$$$########################....        ",
"        ....%%%%%%%%$$$$$$$$########################....        ",
"        ....%%%%%%%%$$$$$$$$########################....        ",
"        ....%%%%%%%%$$$$$$$$########################....        ",
"        ....%%%%$$$$$$$$$$$$####OOOOOOOO########OOOO....        ",
"        ....%%%%$$$$$$$$$$$$####OOOOOOOO########OOOO....        ",
"        ....%%%%$$$$$$$$$$$$####OOOOOOOO########OOOO....        ",
"        ....%%%%$$$$$$$$$$$$####OOOOOOOO########OOOO....        ",
"        ....$$$$$$$$$$$$$$$$####OOOOOOOO########OOOO....        ",
"        ....$$$$$$$$$$$$$$$$####OOOOOOOO########OOOO....        ",
"        ....$$$$$$$$$$$$$$$$####OOOOOOOO########OOOO....        ",
"        ....$$$$$$$$$$$$$$$$####OOOOOOOO########OOOO....        ",
"        ....$$$$........########@@@@@@@@########@@@@....        ",
"        ....$$$$........########@@@@@@@@########@@@@....        ",
"        ....$$$$........########@@@@@@@@########@@@@....        ",
"        ....$$$$........########@@@@@@@@########@@@@....        ",
"        ........    ....############################....        ",
"        ........    ....############################....        ",
"        ........    ....############################....        ",
"        ........    ....############################....        ",
"        ....        ....++++++++............++++++++....        ",
"        ....        ....++++++++............++++++++....        ",
"        ....        ....++++++++............++++++++....        ",
"        ....        ....++++++++............++++++++....        ",
"                    ............            ............        ",
"                    ............            ............        ",
"                    ............            ............        ",
"                    ............            ............        ",
"                                                                ",
"                                                                ",
"                                                                ",
"                                                                ",
"                                                                ",
"                                                                ",
"                                                                ",
"                                                                ",
"                                                                ",
"                                                                ",
"                                                                ",
"                                                                "
};
