/* XPM */
static char *d13f51d1398e4eefd76b71075df68936rA73jsYcvAz2xXRZ[] = {
/* columns rows colors chars-per-pixel */
"64 64 5 1 ",
"  c #222222",
". c #483B3A",
"X c #775C55",
"o c #AA8D7A",
"O c #D3BFA9",
/* pixels */
"                                                                ",
"                                                                ",
"                                                                ",
"                                                                ",
"    oooooooo....oooooooooooooooooooo    oooooooooooo    oooooooo",
"    oooooooo....oooooooooooooooooooo    oooooooooooo    oooooooo",
"    oooooooo....oooooooooooooooooooo    oooooooooooo    oooooooo",
"    oooooooo....oooooooooooooooooooo    oooooooooooo    oooooooo",
"    oooooooooooooooooooooooooooooooo    oooooooooooo    oooooooo",
"    oooooooooooooooooooooooooooooooo    oooooooooooo    oooooooo",
"    oooooooooooooooooooooooooooooooo    oooooooooooo    oooooooo",
"    oooooooooooooooooooooooooooooooo    oooooooooooo    oooooooo",
"    OOOOOOOOOOOOOOOOOOOOOOOO....OOOO    OOOOOOOOOOOO    OOOOOOOO",
"    OOOOOOOOOOOOOOOOOOOOOOOO....OOOO    OOOOOOOOOOOO    OOOOOOOO",
"    OOOOOOOOOOOOOOOOOOOOOOOO....OOOO    OOOOOOOOOOOO    OOOOOOOO",
"    OOOOOOOOOOOOOOOOOOOOOOOO....OOOO    OOOOOOOOOOOO    OOOOOOOO",
"    XXXXXXXXXXXXXXXXXXXXXXXXXXXXXXXX    XXXXXXXXXXXX    XXXXXXXX",
"    XXXXXXXXXXXXXXXXXXXXXXXXXXXXXXXX    XXXXXXXXXXXX    XXXXXXXX",
"    XXXXXXXXXXXXXXXXXXXXXXXXXXXXXXXX    XXXXXXXXXXXX    XXXXXXXX",
"    XXXXXXXXXXXXXXXXXXXXXXXXXXXXXXXX    XXXXXXXXXXXX    XXXXXXXX",
"    ................................    ............    ........",
"    ................................    ............    ........",
"    ................................    ............    ........",
"    ................................    ............    ........",
"    ................    ............    ........        ........",
"    ................    ............    ........        ........",
"    ................    ............    ........        ........",
"    ................    ............    ........        ........",
"                                                                ",
"                                                                ",
"                                                                ",
"                                                                ",
"        XXXXXXXX    XXXXXXXXXXXXXXXXXXXXXXXX    XXXXXXXXXXXXXXXX",
"        XXXXXXXX    XXXXXXXXXXXXXXXXXXXXXXXX    XXXXXXXXXXXXXXXX",
"        XXXXXXXX    XXXXXXXXXXXXXXXXXXXXXXXX    XXXXXXXXXXXXXXXX",
"        XXXXXXXX    XXXXXXXXXXXXXXXXXXXXXXXX    XXXXXXXXXXXXXXXX",
"    ............    ........................    ................",
"    ............    ........................    ................",
"    ............    ........................    ................",
"    ............    ........................    ................",
"    ............    ........................    ....    ........",
"    ............    ........................    ....    ........",
"    ............    ........................    ....    ........",
"    ............    ........................    ....    ........",
"                                                                ",
"                                                                ",
"                                                                ",
"                                                                ",
"    XXXXXXXXXXXXXXXXXXXXXXXX    XXXXXXXXXXXXXXXXXXXXXXXX        ",
"    XXXXXXXXXXXXXXXXXXXXXXXX    XXXXXXXXXXXXXXXXXXXXXXXX        ",
"    XXXXXXXXXXXXXXXXXXXXXXXX    XXXXXXXXXXXXXXXXXXXXXXXX        ",
"    XXXXXXXXXXXXXXXXXXXXXXXX    XXXXXXXXXXXXXXXXXXXXXXXX        ",
"    ........................    ........................    ....",
"    ........................    ........................    ....",
"    ........................    ........................    ....",
"    ........................    ........................    ....",
"    ........    ............    ........................    ....",
"    ........    ............    ........................    ....",
"    ........    ............    ........................    ....",
"    ........    ............    ........................    ....",
"                                                                ",
"                                                                ",
"                                                                ",
"                                                                "
};
